<?xml version="1.0" encoding="UTF-8" standalone="no"?>
<svg
   xmlns:dc="http://purl.org/dc/elements/1.1/"
   xmlns:cc="http://creativecommons.org/ns#"
   xmlns:rdf="http://www.w3.org/1999/02/22-rdf-syntax-ns#"
   xmlns:svg="http://www.w3.org/2000/svg"
   xmlns="http://www.w3.org/2000/svg"
   xmlns:sodipodi="http://sodipodi.sourceforge.net/DTD/sodipodi-0.dtd"
   xmlns:inkscape="http://www.inkscape.org/namespaces/inkscape"
   width="100"
   height="100"
   viewBox="0 0 26.458331 26.458334"
   version="1.1"
   id="svg8"
   inkscape:version="1.0.2 (e86c870879, 2021-01-15)"
   sodipodi:docname="spider.svg">
  <defs
     id="defs2" />
  <sodipodi:namedview
     id="base"
     pagecolor="#b0b0b0"
     bordercolor="#666666"
     borderopacity="1.0"
     inkscape:pageopacity="0"
     inkscape:pageshadow="2"
     inkscape:zoom="4.0163665"
     inkscape:cx="33.76334"
     inkscape:cy="56.798641"
     inkscape:document-units="mm"
     inkscape:current-layer="layer1"
     inkscape:document-rotation="0"
     showgrid="false"
     units="px"
     inkscape:pagecheckerboard="false"
     borderlayer="true"
     inkscape:window-width="1366"
     inkscape:window-height="741"
     inkscape:window-x="0"
     inkscape:window-y="27"
     inkscape:window-maximized="0"
     inkscape:object-paths="true" />
  <metadata
     id="metadata5">
    <rdf:RDF>
      <cc:Work
         rdf:about="">
        <dc:format>image/svg+xml</dc:format>
        <dc:type
           rdf:resource="http://purl.org/dc/dcmitype/StillImage" />
        <dc:title></dc:title>
      </cc:Work>
    </rdf:RDF>
  </metadata>
  <g
     inkscape:label="Layer 1"
     inkscape:groupmode="layer"
     id="layer1">
    <circle
       style="fill:#e2be8a;stroke:none;stroke-width:0.374298;stroke-linecap:round;stroke-linejoin:round"
       id="path851"
       cx="13.209769"
       cy="-9.0288887"
       r="7.6255875" />
    <path
       style="fill:none;stroke:#000000;stroke-width:0.187149px;stroke-linecap:butt;stroke-linejoin:miter;stroke-opacity:1"
       d="m 13.371066,-16.65277 c 0,0 6.07318,-1.225506 7.091112,1.376968 0.391174,1.000087 -2.352384,0.404024 -2.352384,0.404024 z"
       id="path853"
       sodipodi:nodetypes="cscc" />
    <path
       style="fill:none;stroke:#000000;stroke-width:0.187149px;stroke-linecap:butt;stroke-linejoin:miter;stroke-opacity:1"
       d="m 18.109794,-14.871778 c 0,0 5.051478,2.034879 4.338408,4.272692 -0.368032,1.1549887 -1.872848,-0.404076 -1.872848,-0.404076 z"
       id="path855"
       sodipodi:nodetypes="cscc" />
    <path
       style="fill:none;stroke:#000000;stroke-width:0.187149px;stroke-linecap:butt;stroke-linejoin:miter;stroke-opacity:1"
       d="m 18.109794,-14.871778 c 0,0 5.051478,2.034879 4.338408,4.272692 -0.368032,1.1549887 -1.872848,-0.404076 -1.872848,-0.404076 z"
       id="path871"
       sodipodi:nodetypes="cscc" />
    <path
       style="fill:none;stroke:#000000;stroke-width:0.187149px;stroke-linecap:butt;stroke-linejoin:miter;stroke-opacity:1"
       d="m 20.575354,-11.003162 c 0,0 3.675863,4.9343567 1.431543,5.6266787 -1.158346,0.357324 -1.438571,-1.652096 -1.438571,-1.652096 z"
       id="path873"
       sodipodi:nodetypes="cscc" />
    <path
       style="fill:none;stroke:#000000;stroke-width:0.187149px;stroke-linecap:butt;stroke-linejoin:miter;stroke-opacity:1"
       d="m 20.568326,-7.0285793 c 0,0 0.414827,5.789256 -1.127826,4.893943 -1.048427,-0.608479 -0.471184,-1.896532 -0.471184,-1.896532 z"
       id="path875"
       sodipodi:nodetypes="cscc" />
    <g
       id="g946"
       inkscape:export-xdpi="96"
       inkscape:export-ydpi="96"
       transform="translate(-27.638993,-1.2911275)">
      <path
         id="path938"
         style="fill:#000000;stroke:none;stroke-width:0.436956;stroke-linecap:round;stroke-linejoin:round"
         d="m 11.384766,1.7011719 c -1.185757,0.1108291 -2.1211569,1.3269908 -1.9394535,2.5 -1.325644,0.05106 -2.993985,0.1593914 -3.75,1.421875 C 5.6774699,6.1321313 5.4615612,6.3238275 4.9794619,6.4500925 4.0989802,6.8780265 3.4150272,7.8553268 3.6074219,8.8613281 2.2663704,9.2058694 0.82140248,10.539665 1.3598504,12.043979 c 0.2994928,0.726164 0.9433786,1.245374 1.6128058,1.620083 -1.1803538,0.534417 -2.20466768,1.982707 -1.4863281,3.259766 0.4125292,0.840875 1.3757064,1.244957 2.1171875,1.615234 -0.1968057,1.222293 0.8343783,2.351253 1.984375,2.597657 -0.024074,1.152714 1.3025976,1.74613 2.2858649,1.875234 0.5219526,0.08253 1.0509842,0.113614 1.5774164,0.154063 -0.3042261,1.608316 1.5282131,2.929706 3.0090841,2.426083 1.003844,-0.175018 1.940686,-0.611451 2.822947,-1.107724 0.865533,1.345972 2.874608,1.085773 3.943969,0.133662 0.679702,-0.533906 1.217194,-1.221705 1.714234,-1.922725 0.86137,0.72426 2.063519,0.197933 2.701172,-0.5625 1.522671,-1.665954 1.485602,-4.104419 1.396115,-6.220491 -0.115022,-1.22494 -0.363909,-2.352876 -0.09576,-3.562088 C 25.200626,10.024646 25.27925,7.3952675 23.828125,5.4199219 23.199161,4.5717238 21.866467,3.8967919 20.929688,4.6542969 19.993523,3.2156596 18.499747,1.6953825 16.621094,1.9882812 16.081252,2.0889885 15.558397,2.3919067 15.275391,2.8730469 14.090979,2.2053294 12.774224,1.6252756 11.384766,1.7011719 Z" />
      <path
         id="circle877"
         style="fill:#1a1a1a;stroke:none;stroke-width:0.436956;stroke-linecap:round;stroke-linejoin:round"
         d="m 24.026898,9.9867132 c -0.0221,-1.921001 -0.424071,-3.9906946 -1.943137,-4.584862 -0.883475,-0.3455589 -0.701393,1.3940053 -0.559835,2.2658882 -0.08399,-0.097175 -0.170081,-0.1925068 -0.2582,-0.2859503 -0.740417,-1.5554604 -2.611532,-4.9451706 -4.641569,-4.298309 -0.898131,0.2861884 -0.392705,1.1530666 0.04645,1.7054493 -0.124346,-0.026815 -0.249252,-0.050945 -0.374632,-0.072391 -1.600157,-1.062007 -5.145141,-3.1385544 -5.768479,-1.1178613 -0.266375,0.8635149 0.590482,1.3067596 1.246961,1.5160233 -0.103676,0.037298 -0.206653,0.076511 -0.308875,0.1176378 -1.8321575,-0.054926 -5.5156069,-0.0035 -4.7230092,1.3621843 0.15748,0.271346 0.3541731,0.447445 0.5640578,0.5598354 -0.9287084,-0.059012 -2.1729525,0.040345 -2.568126,0.9326577 -0.5338081,1.2053627 0.9283092,1.24727 1.7971452,1.1769832 -1.2651126,0.1687256 -4.1778274,0.7036328 -4.2373765,2.0861122 -0.059316,1.377097 3.5846545,2.335114 3.5846545,2.335114 -0.1844447,-0.0082 -3.6508684,0.936808 -3.5834533,2.323344 0.067196,1.382129 2.9722651,1.917388 4.2373777,2.086111 -0.8688371,-0.07029 -2.3309545,-0.02838 -1.7971451,1.176983 0.394843,0.89157 1.637245,0.991349 2.5657129,0.932657 -0.2097376,0.112456 -0.4060863,0.288684 -0.5634555,0.559835 -0.7928101,1.366037 2.892569,1.416578 4.7242165,1.361583 0.102217,0.04133 0.205193,0.08075 0.308874,0.118243 -0.656629,0.209102 -1.514704,0.651983 -1.248167,1.51602 0.623275,2.02049 4.167484,-0.05576 5.767876,-1.117862 0.12538,-0.02143 0.250285,-0.04559 0.374631,-0.07239 -0.439099,0.552401 -0.943811,1.419317 -0.04584,1.70545 2.028822,0.646474 3.899017,-2.739143 4.640362,-4.295894 0.08833,-0.09364 0.174618,-0.189176 0.258804,-0.286554 -0.141484,0.872979 -0.321937,2.609208 0.560438,2.264077 1.519066,-0.594167 1.921035,-2.663861 1.943137,-4.584862 0.0221,-1.921 -0.335419,-3.693226 -0.335419,-3.693226 l 6.04e-4,0.0012 c 0,0 0.357521,-1.772229 0.335419,-3.6932291 z"
         sodipodi:nodetypes="csccsccsccscscscscscsccsccsccsscccc" />
      <circle
         style="fill:#f2f2f2;fill-opacity:1;stroke:none;stroke-width:0.61775;stroke-linecap:round;stroke-linejoin:round"
         id="path906"
         cx="14.265615"
         cy="12.090885"
         r="0.7695663" />
      <circle
         style="fill:#f2f2f2;fill-opacity:1;stroke:none;stroke-width:0.61775;stroke-linecap:round;stroke-linejoin:round"
         id="path908"
         cx="14.198343"
         cy="15.667325"
         r="0.68583852" />
    </g>
    <circle
       style="fill:#000000;fill-opacity:1;stroke:#f9f9f9;stroke-width:0.529167;stroke-linecap:round;stroke-linejoin:round"
       id="path948"
       cx="13.473012"
       cy="13.467719"
       r="11.504906"
       inkscape:export-xdpi="96"
       inkscape:export-ydpi="96" />
  </g>
</svg>
