<?xml version="1.0" encoding="UTF-8" standalone="no"?>
<svg
   xmlns:dc="http://purl.org/dc/elements/1.1/"
   xmlns:cc="http://creativecommons.org/ns#"
   xmlns:rdf="http://www.w3.org/1999/02/22-rdf-syntax-ns#"
   xmlns:svg="http://www.w3.org/2000/svg"
   xmlns="http://www.w3.org/2000/svg"
   xmlns:sodipodi="http://sodipodi.sourceforge.net/DTD/sodipodi-0.dtd"
   xmlns:inkscape="http://www.inkscape.org/namespaces/inkscape"
   width="100"
   height="100"
   viewBox="0 0 26.458331 26.458334"
   version="1.1"
   id="svg8"
   inkscape:version="1.0.2 (e86c870879, 2021-01-15)"
   sodipodi:docname="spider.svg">
  <defs
     id="defs2" />
  <sodipodi:namedview
     id="base"
     pagecolor="#b0b0b0"
     bordercolor="#666666"
     borderopacity="1.0"
     inkscape:pageopacity="0"
     inkscape:pageshadow="2"
     inkscape:zoom="4.0163665"
     inkscape:cx="34.685489"
     inkscape:cy="152.52232"
     inkscape:document-units="mm"
     inkscape:current-layer="layer1"
     inkscape:document-rotation="0"
     showgrid="false"
     units="px"
     inkscape:pagecheckerboard="false"
     borderlayer="true"
     inkscape:window-width="1366"
     inkscape:window-height="717"
     inkscape:window-x="0"
     inkscape:window-y="27"
     inkscape:window-maximized="1"
     inkscape:object-paths="true" />
  <metadata
     id="metadata5">
    <rdf:RDF>
      <cc:Work
         rdf:about="">
        <dc:format>image/svg+xml</dc:format>
        <dc:type
           rdf:resource="http://purl.org/dc/dcmitype/StillImage" />
        <dc:title />
      </cc:Work>
    </rdf:RDF>
  </metadata>
  <g
     inkscape:label="Layer 1"
     inkscape:groupmode="layer"
     id="layer1">
    <g
       id="g1561"
       transform="translate(0,23.86647)"
       inkscape:export-xdpi="96"
       inkscape:export-ydpi="96">
      <path
         id="path1550"
         style="fill:#000000;stroke:none;stroke-width:0.529167;stroke-linecap:round;stroke-linejoin:round"
         d="m 10.828125,-21.578125 c -0.9571571,0.142793 -1.0719907,1.240009 -1.5507812,1.904297 -0.5589557,0.990074 -0.1165863,2.262903 0.8125002,2.833984 -0.5947163,0.769286 -0.7982829,1.832713 -0.5000002,2.761719 -2.2257748,-0.0087 -3.9894903,2.390992 -3.3477461,4.5147634 0.3554214,0.5955205 0.1196446,0.7370286 -0.5038165,0.819221 -2.2106046,0.7415923 -3.2203556,3.6685473 -1.9368798,5.6133327 0.8006245,1.3848719 2.4627592,2.0076866 4.0067738,1.8409276 4.2420108,-0.014798 8.4864038,0.028922 12.7269808,-0.026526 2.230794,-0.2169689 3.881576,-2.6375891 3.240058,-4.7919889 -0.355358,-1.4881078 -1.691586,-2.6493288 -3.202948,-2.8408237 0.959114,-1.9113721 -0.189453,-4.4814511 -2.280302,-4.9941991 -0.684578,0.03619 -0.503016,-0.352318 -0.426938,-0.847828 0.12172,-1.419972 -0.894409,-2.750603 -2.245885,-3.134535 -1.728448,-0.666768 -2.746398,-2.289016 -4.096439,-3.444409 -0.209685,-0.115791 -0.450401,-0.213493 -0.694577,-0.207935 z" />
      <path
         id="rect1531"
         style="fill:#a05a2c;stroke:none;stroke-width:2;stroke-linecap:round;stroke-linejoin:round"
         d="M 41.232422,-77.628906 C 39.62785,-72.618965 32.713647,-68.886011 46.738281,-64 l 0.123047,0.0039 c -3.971841,0.133315 -7.130859,3.365653 -7.130859,7.371094 0,4.090675 3.292137,7.382812 7.382812,7.382812 H 36.777344 c -5.340959,0 -9.640625,4.299667 -9.640625,9.640626 0,5.340958 4.299666,9.642578 9.640625,9.642578 h -10 c -5.841546,0 -10.542969,4.701423 -10.542969,10.542968 0,5.841546 4.701423,10.5449222 10.542969,10.5449222 h 49.021484 c 5.841546,0 10.542969,-4.7033762 10.542969,-10.5449222 0,-5.841545 -4.701423,-10.542968 -10.542969,-10.542968 h -10.40625 c 5.340959,0 9.640625,-4.30162 9.640625,-9.642578 0,-5.340959 -4.299666,-9.640626 -9.640625,-9.640626 h -9.220703 c 4.090675,0 7.382813,-3.292137 7.382813,-7.382812 0,-3.351877 -2.212575,-6.164264 -5.261719,-7.072266 h 0.01563 c -9.089167,-3.812953 -11.687239,-8.965073 -17.076172,-13.93164 z"
         transform="scale(0.26458333)" />
      <circle
         style="fill:#ffffff;stroke:none;stroke-width:0.529167;stroke-linecap:round;stroke-linejoin:round"
         id="path1540"
         cx="10.648158"
         cy="-10.212138"
         r="1.3054485" />
      <circle
         style="fill:#ffffff;stroke:none;stroke-width:0.529167;stroke-linecap:round;stroke-linejoin:round"
         id="circle1542"
         cx="16.51125"
         cy="-10.212138"
         r="1.3054485" />
      <path
         style="fill:#f9f9f9;stroke:none;stroke-width:0.264583px;stroke-linecap:butt;stroke-linejoin:miter;stroke-opacity:1"
         d="m 10.896324,-7.4559452 h 5.264352 c 0,0 -0.379931,3.9199381 -2.008072,3.9723052 -1.694511,0.054502 -3.25628,-3.9723052 -3.25628,-3.9723052 z"
         id="path1544"
         sodipodi:nodetypes="ccsc" />
      <circle
         style="fill:#1a1a1a;stroke:none;stroke-width:0.278638;stroke-linecap:round;stroke-linejoin:round"
         id="circle1546"
         cx="10.648158"
         cy="-10.212138"
         r="0.68739688" />
      <circle
         style="fill:#1a1a1a;stroke:none;stroke-width:0.291324;stroke-linecap:round;stroke-linejoin:round"
         id="circle1548"
         cx="16.51125"
         cy="-10.212138"
         r="0.71869355" />
    </g>
    <g
       id="g1569"
       transform="translate(8.6484667,-2.0902474)"
       inkscape:export-xdpi="96"
       inkscape:export-ydpi="96">
      <circle
         style="fill:#000000;stroke:none;stroke-width:0.739538;stroke-linecap:round;stroke-linejoin:round"
         id="circle1565"
         cx="-15.729448"
         cy="7.8453698"
         r="2.8842568" />
      <circle
         style="fill:#a05a2c;fill-opacity:1;stroke:none;stroke-width:0.529167;stroke-linecap:round;stroke-linejoin:round"
         id="path1563"
         cx="-15.729448"
         cy="7.8453698"
         r="2.0637927" />
    </g>
    <g
       id="g1617"
       inkscape:export-xdpi="96"
       inkscape:export-ydpi="96">
      <path
         id="path1571"
         style="fill:#000000;stroke:none;stroke-width:0.529167;stroke-linecap:round;stroke-linejoin:round"
         d="M 37.172991,2.288345 C 36.215834,2.431138 36.101,3.528354 35.62221,4.192642 c -0.558956,0.990074 -0.116587,2.262903 0.8125,2.833984 -0.594716,0.769286 -0.798283,1.832713 -0.5,2.761719 -2.225775,-0.0087 -3.989491,2.390992 -3.347746,4.514763 0.355421,0.595521 0.119644,0.737029 -0.503817,0.819221 -2.210604,0.741593 -3.220355,3.668548 -1.93688,5.613333 0.800625,1.384872 2.46276,2.007687 4.006774,1.840928 4.242011,-0.0148 8.486404,0.02892 12.726981,-0.02653 2.230794,-0.216969 3.881576,-2.637589 3.240058,-4.791989 C 49.764722,16.269967 48.428494,15.108746 46.917132,14.917251 47.876246,13.005879 46.727679,10.4358 44.63683,9.923052 43.952252,9.959242 44.133814,9.570734 44.209892,9.075224 44.331612,7.655252 43.315483,6.324621 41.964007,5.940689 40.235559,5.273921 39.217609,3.651673 37.867568,2.49628 37.657883,2.380489 37.417167,2.282787 37.172991,2.288345 Z" />
      <path
         id="path1573"
         style="fill:#a05a2c;stroke:none;stroke-width:0.529167;stroke-linecap:round;stroke-linejoin:round"
         d="m 37.254278,3.3271555 c -0.424543,1.3255469 -2.253926,2.3132243 1.456758,3.6059814 l 0.03256,0.00103 c -1.050883,0.035273 -1.886706,0.8904956 -1.886706,1.9502686 0,1.0823244 0.871044,1.9533685 1.953369,1.9533685 h -2.734717 c -1.413129,0 -2.550749,1.137621 -2.550749,2.550749 0,1.413129 1.13762,2.551266 2.550749,2.551266 h -2.645833 c -1.545576,0 -2.789494,1.243918 -2.789494,2.789493 0,1.545576 1.243918,2.790011 2.789494,2.790011 h 12.970267 c 1.545576,0 2.789494,-1.244435 2.789494,-2.790011 0,-1.545575 -1.243918,-2.789493 -2.789494,-2.789493 h -2.75332 c 1.413129,0 2.550749,-1.138137 2.550749,-2.551266 0,-1.413128 -1.13762,-2.550749 -2.550749,-2.550749 h -2.439644 c 1.082324,0 1.953369,-0.8710441 1.953369,-1.9533685 0,-0.8868508 -0.58541,-1.6309615 -1.392163,-1.8712037 h 0.0041 C 39.367507,6.0043899 38.680101,4.6412248 37.254279,3.327154 Z" />
      <path
         style="fill:#f9f9f9;stroke:none;stroke-width:0.264583px;stroke-linecap:butt;stroke-linejoin:miter;stroke-opacity:1"
         d="m 37.24119,20.383378 h 5.264352 c 0,0 -0.379931,-3.919938 -2.008072,-3.972305 -1.694511,-0.0545 -3.25628,3.972305 -3.25628,3.972305 z"
         id="path1579"
         sodipodi:nodetypes="ccsc" />
      <g
         id="g1600"
         transform="translate(-7.1846512,0.32134796)">
        <rect
           style="fill:#000000;fill-opacity:1;stroke:none;stroke-width:0.529167;stroke-linecap:round;stroke-linejoin:round"
           id="rect1594"
           width="2.6097691"
           height="0.72801161"
           x="43.663609"
           y="-26.830133"
           ry="0.3640058"
           transform="rotate(45)" />
        <rect
           style="fill:#000000;fill-opacity:1;stroke:none;stroke-width:0.529167;stroke-linecap:round;stroke-linejoin:round"
           id="rect1596"
           width="2.6097691"
           height="0.72801161"
           x="-27.771013"
           y="-45.3325"
           ry="0.3640058"
           transform="rotate(135)" />
      </g>
      <g
         id="g1606"
         transform="translate(-13.873278,0.32134796)">
        <rect
           style="fill:#000000;fill-opacity:1;stroke:none;stroke-width:0.529167;stroke-linecap:round;stroke-linejoin:round"
           id="rect1602"
           width="2.6097691"
           height="0.72801161"
           x="43.663609"
           y="-26.830133"
           ry="0.3640058"
           transform="rotate(45)" />
        <rect
           style="fill:#000000;fill-opacity:1;stroke:none;stroke-width:0.529167;stroke-linecap:round;stroke-linejoin:round"
           id="rect1604"
           width="2.6097691"
           height="0.72801161"
           x="-27.771013"
           y="-45.3325"
           ry="0.3640058"
           transform="rotate(135)" />
      </g>
    </g>
    <rect
       style="fill:#000000;fill-opacity:1;stroke:none;stroke-width:0.529167;stroke-linecap:round;stroke-linejoin:round"
       id="rect1619"
       width="3.2824316"
       height="1.0197376"
       x="5.0837245"
       y="-3.3702173"
       ry="0.5098688"
       inkscape:export-xdpi="96"
       inkscape:export-ydpi="96" />
    <g
       id="g1735"
       inkscape:export-xdpi="96"
       inkscape:export-ydpi="96">
      <path
         id="path1623"
         style="fill:#000000;stroke:none;stroke-width:0.529167;stroke-linecap:round;stroke-linejoin:round"
         d="m 10.828125,30.070031 c -0.9571571,0.142793 -1.0719907,1.240009 -1.5507812,1.904297 -0.5589557,0.990074 -0.1165863,2.262903 0.8125002,2.833984 -0.5947163,0.769286 -0.7982829,1.832713 -0.5000002,2.761719 -2.2257748,-0.0087 -3.9894903,2.390992 -3.3477461,4.514763 0.3554214,0.595521 0.1196446,0.737029 -0.5038165,0.819221 -2.2106046,0.741593 -3.2203556,3.668548 -1.9368798,5.613333 0.8006245,1.384872 2.4627592,2.007687 4.0067738,1.840928 4.2420108,-0.0148 8.4864038,0.02892 12.7269808,-0.02653 2.230794,-0.216969 3.881576,-2.637589 3.240058,-4.791989 -0.355358,-1.488108 -1.691586,-2.649329 -3.202948,-2.840824 0.959114,-1.911372 -0.189453,-4.481451 -2.280302,-4.994199 -0.684578,0.03619 -0.503016,-0.352318 -0.426938,-0.847828 0.12172,-1.419972 -0.894409,-2.750603 -2.245885,-3.134535 -1.728448,-0.666768 -2.746398,-2.289016 -4.096439,-3.444409 -0.209685,-0.115791 -0.450401,-0.213493 -0.694577,-0.207935 z" />
      <path
         id="path1625"
         style="fill:#a05a2c;stroke:none;stroke-width:0.529167;stroke-linecap:round;stroke-linejoin:round"
         d="m 10.909412,31.108842 c -0.424543,1.325546 -2.2539263,2.313224 1.456758,3.605981 l 0.03256,10e-4 c -1.050883,0.03527 -1.886706,0.890495 -1.886706,1.950268 0,1.082325 0.871044,1.953369 1.953369,1.953369 H 9.7306721 c -1.4131287,0 -2.5507486,1.137621 -2.5507486,2.550749 0,1.413129 1.1376199,2.551266 2.5507486,2.551266 H 7.0848388 c -1.5455756,0 -2.7894938,1.243918 -2.7894938,2.789493 0,1.545576 1.2439182,2.790011 2.7894938,2.790011 H 20.055106 c 1.545576,0 2.789494,-1.244435 2.789494,-2.790011 0,-1.545575 -1.243918,-2.789493 -2.789494,-2.789493 h -2.75332 c 1.413129,0 2.550749,-1.138137 2.550749,-2.551266 0,-1.413128 -1.13762,-2.550749 -2.550749,-2.550749 h -2.439644 c 1.082324,0 1.953369,-0.871044 1.953369,-1.953369 0,-0.88685 -0.58541,-1.630961 -1.392163,-1.871203 h 0.0041 c -2.404842,-1.008844 -3.092248,-2.372009 -4.51807,-3.68608 z" />
      <path
         style="fill:none;stroke:#000000;stroke-width:0.265;stroke-linecap:round;stroke-linejoin:round;stroke-miterlimit:4;stroke-dasharray:none;stroke-opacity:1"
         d="m 8.6278508,46.88681 c 0.951566,-1.246858 0.817716,-3.368865 2.9453952,-3.667447 l 0.300263,1.187253"
         id="path1648"
         sodipodi:nodetypes="ccc" />
      <path
         style="fill:none;stroke:#000000;stroke-width:0.265;stroke-linecap:round;stroke-linejoin:round;stroke-miterlimit:4;stroke-dasharray:none;stroke-opacity:1"
         d="M 9.3797968,42.17022 C 9.7985849,41.54976 11.582045,41.483715 11.93039,41.879922"
         id="path1654"
         sodipodi:nodetypes="cc" />
      <path
         style="fill:none;stroke:#000000;stroke-width:0.264583px;stroke-linecap:round;stroke-linejoin:round;stroke-opacity:1"
         d="m 18.144347,46.88681 c -0.935594,-1.372307 -1.558775,-3.75767 -2.945395,-3.667447 l -0.300263,1.187253"
         id="path1660"
         sodipodi:nodetypes="ccc" />
      <path
         style="fill:none;stroke:#000000;stroke-width:0.264583px;stroke-linecap:round;stroke-linejoin:round;stroke-opacity:1"
         d="m 11.691778,46.348011 c 0.351087,0.349175 0.716188,0.688125 1.660819,0.6042 0.919968,0.103536 1.178041,-0.381543 1.707941,-0.62489"
         id="path1656"
         sodipodi:nodetypes="ccc" />
      <path
         style="fill:none;stroke:#000000;stroke-width:0.264583px;stroke-linecap:round;stroke-linejoin:round;stroke-opacity:1"
         d="m 11.794655,45.357681 c 0.603413,-0.560535 0.902117,-0.117726 1.498171,-0.0249 0.509789,-0.400116 0.974316,-0.153171 1.349333,-0.04295"
         id="path1658"
         sodipodi:nodetypes="ccc" />
      <path
         style="fill:#f9f9f9;stroke:none;stroke-width:0.264583px;stroke-linecap:butt;stroke-linejoin:miter;stroke-opacity:1"
         d="m 12.774254,46.321894 c -0.278315,-0.06999 -0.794037,-0.165538 -0.736049,-0.446598 0.0731,-0.354327 0.777325,-0.08455 1.139087,-0.08 0.319251,0.004 0.795726,-0.221496 0.880942,0.0862 0.05463,0.197249 -0.277871,0.321813 -0.468074,0.397405 -0.253091,0.100586 -0.551783,0.109415 -0.815906,0.043 z"
         id="path1662"
         sodipodi:nodetypes="ssssss" />
      <path
         style="fill:#000000;stroke:none;stroke-width:0.264583px;stroke-linecap:butt;stroke-linejoin:miter;stroke-opacity:1"
         d="m 12.73809,43.99231 c 0.0079,-0.177819 -0.287446,-0.376436 -0.445451,-0.294479 -0.160927,0.08347 -0.170429,0.44844 -0.01614,0.543624 0.148807,0.0918 0.453797,-0.07447 0.461591,-0.249145 z"
         id="path1666"
         sodipodi:nodetypes="ssss" />
      <path
         style="fill:#000000;stroke:none;stroke-width:0.264583px;stroke-linecap:butt;stroke-linejoin:miter;stroke-opacity:1"
         d="m 13.745752,43.99231 c -0.0079,-0.177819 0.287446,-0.376436 0.445451,-0.294479 0.160927,0.08347 0.170429,0.44844 0.01614,0.543624 -0.148807,0.0918 -0.453797,-0.07447 -0.461591,-0.249145 z"
         id="path1668"
         sodipodi:nodetypes="ssss" />
      <path
         style="fill:none;stroke:#000000;stroke-width:0.265;stroke-linecap:round;stroke-linejoin:round;stroke-miterlimit:4;stroke-dasharray:none;stroke-opacity:1"
         d="M 17.071561,42.17022 C 16.652773,41.54976 14.869313,41.483715 14.520968,41.879922"
         id="path1684"
         sodipodi:nodetypes="cc" />
    </g>
  </g>
</svg>
