<?xml version="1.0" encoding="UTF-8" standalone="no"?>
<svg
   xmlns:dc="http://purl.org/dc/elements/1.1/"
   xmlns:cc="http://creativecommons.org/ns#"
   xmlns:rdf="http://www.w3.org/1999/02/22-rdf-syntax-ns#"
   xmlns:svg="http://www.w3.org/2000/svg"
   xmlns="http://www.w3.org/2000/svg"
   xmlns:sodipodi="http://sodipodi.sourceforge.net/DTD/sodipodi-0.dtd"
   xmlns:inkscape="http://www.inkscape.org/namespaces/inkscape"
   width="75"
   height="75"
   viewBox="0 0 19.843749 19.84375"
   version="1.1"
   id="svg8"
   sodipodi:docname="coin.svg"
   inkscape:version="1.0.2 (e86c870879, 2021-01-15)">
  <defs
     id="defs2">
    <filter
       style="color-interpolation-filters:sRGB"
       inkscape:label="Roughen"
       id="filter1535">
      <feTurbulence
         type="turbulence"
         numOctaves="4"
         seed="258"
         baseFrequency="0.04 0.04"
         result="turbulence"
         id="feTurbulence1531" />
      <feDisplacementMap
         in="SourceGraphic"
         in2="turbulence"
         scale="3.79903"
         yChannelSelector="G"
         xChannelSelector="R"
         id="feDisplacementMap1533" />
    </filter>
    <filter
       style="color-interpolation-filters:sRGB"
       inkscape:label="Roughen"
       id="filter1637">
      <feTurbulence
         type="turbulence"
         numOctaves="2"
         seed="197"
         baseFrequency="0.04 0.04"
         result="turbulence"
         id="feTurbulence1633" />
      <feDisplacementMap
         in="SourceGraphic"
         in2="turbulence"
         scale="2.74276"
         yChannelSelector="G"
         xChannelSelector="R"
         id="feDisplacementMap1635" />
    </filter>
    <filter
       style="color-interpolation-filters:sRGB"
       inkscape:label="Roughen"
       id="filter1643">
      <feTurbulence
         type="turbulence"
         numOctaves="2"
         seed="197"
         baseFrequency="0.04 0.04"
         result="turbulence"
         id="feTurbulence1639" />
      <feDisplacementMap
         in="SourceGraphic"
         in2="turbulence"
         scale="2.74276"
         yChannelSelector="G"
         xChannelSelector="R"
         id="feDisplacementMap1641" />
    </filter>
    <filter
       style="color-interpolation-filters:sRGB"
       inkscape:label="Roughen"
       id="filter1885">
      <feTurbulence
         type="turbulence"
         numOctaves="2"
         seed="238"
         baseFrequency="0.04 0.04"
         result="turbulence"
         id="feTurbulence1881" />
      <feDisplacementMap
         in="SourceGraphic"
         in2="turbulence"
         scale="1.82113"
         yChannelSelector="G"
         xChannelSelector="R"
         id="feDisplacementMap1883" />
    </filter>
    <filter
       style="color-interpolation-filters:sRGB"
       inkscape:label="Roughen"
       id="filter1892">
      <feTurbulence
         type="turbulence"
         numOctaves="2"
         seed="238"
         baseFrequency="0.04 0.04"
         result="turbulence"
         id="feTurbulence1888" />
      <feDisplacementMap
         in="SourceGraphic"
         in2="turbulence"
         scale="1.82113"
         yChannelSelector="G"
         xChannelSelector="R"
         id="feDisplacementMap1890" />
    </filter>
    <filter
       style="color-interpolation-filters:sRGB"
       inkscape:label="Roughen"
       id="filter1898">
      <feTurbulence
         type="turbulence"
         numOctaves="2"
         seed="238"
         baseFrequency="0.04 0.04"
         result="turbulence"
         id="feTurbulence1894" />
      <feDisplacementMap
         in="SourceGraphic"
         in2="turbulence"
         scale="1.82113"
         yChannelSelector="G"
         xChannelSelector="R"
         id="feDisplacementMap1896" />
    </filter>
    <filter
       style="color-interpolation-filters:sRGB"
       inkscape:label="Roughen"
       id="filter1988">
      <feTurbulence
         type="turbulence"
         numOctaves="2"
         seed="238"
         baseFrequency="0.04 0.0431"
         result="turbulence"
         id="feTurbulence1984" />
      <feDisplacementMap
         in="SourceGraphic"
         in2="turbulence"
         scale="4.0387"
         yChannelSelector="G"
         xChannelSelector="R"
         id="feDisplacementMap1986" />
    </filter>
    <filter
       style="color-interpolation-filters:sRGB"
       inkscape:label="Roughen"
       id="filter1994">
      <feTurbulence
         type="turbulence"
         numOctaves="2"
         seed="238"
         baseFrequency="0.04 0.0431"
         result="turbulence"
         id="feTurbulence1990" />
      <feDisplacementMap
         in="SourceGraphic"
         in2="turbulence"
         scale="4.0387"
         yChannelSelector="G"
         xChannelSelector="R"
         id="feDisplacementMap1992" />
    </filter>
  </defs>
  <sodipodi:namedview
     id="base"
     pagecolor="#ffffff"
     bordercolor="#666666"
     borderopacity="1.0"
     inkscape:pageopacity="0.0"
     inkscape:pageshadow="2"
     inkscape:zoom="4.8177542"
     inkscape:cx="48.77004"
     inkscape:cy="36.467441"
     inkscape:document-units="mm"
     inkscape:current-layer="layer1"
     inkscape:document-rotation="0"
     showgrid="false"
     units="px"
     inkscape:window-width="1366"
     inkscape:window-height="741"
     inkscape:window-x="0"
     inkscape:window-y="27"
     inkscape:window-maximized="0" />
  <metadata
     id="metadata5">
    <rdf:RDF>
      <cc:Work
         rdf:about="">
        <dc:format>image/svg+xml</dc:format>
        <dc:type
           rdf:resource="http://purl.org/dc/dcmitype/StillImage" />
        <dc:title></dc:title>
      </cc:Work>
    </rdf:RDF>
  </metadata>
  <g
     inkscape:label="Layer 1"
     inkscape:groupmode="layer"
     id="layer1">
    <g
       id="g2550"
       transform="matrix(0.95957292,0,0,0.95957292,0.40347329,0.40337864)"
       inkscape:export-xdpi="96"
       inkscape:export-ydpi="96">
      <path
         id="path2527"
         style="fill:#d8d8d8;fill-opacity:1;stroke-width:0.902743;stroke-linecap:round;stroke-linejoin:round"
         d="m 9.6816406,-0.1796875 c -5.3238598,0.0519961 -10.09742592,4.9802512 -9.84500862,10.3268455 0.0128808,4.876849 4.00547382,9.377592 8.86115432,9.917832 3.4008767,0.428809 6.9594987,-1.018965 9.1198867,-3.589286 1.809221,-2.07287 2.570719,-5.121042 2.240921,-7.7003134 C 19.751113,5.9542465 18.17358,3.2304897 15.842013,1.7017138 14.056284,0.44498874 11.86843,-0.24364802 9.6816406,-0.1796875 Z" />
      <path
         id="circle1129"
         style="fill:#683c00;fill-opacity:1;stroke-width:0.902743;stroke-linecap:round;stroke-linejoin:round"
         d="M 9.6764144,0.87920166 C 5.4946305,0.97224963 1.6022973,4.325274 1.0175762,8.4895181 c -0.56031838,3.3332299 0.874707,6.9546099 3.6798465,8.8800809 2.5415294,1.835226 6.0601573,2.247826 8.9273493,0.947107 3.237856,-1.368095 5.494894,-4.765255 5.469931,-8.28515 C 19.127519,6.8195646 17.33594,3.6393721 14.50817,2.0868052 13.050159,1.2483414 11.358671,0.81794952 9.6764144,0.87920166 Z" />
      <circle
         style="fill:#ffcc00;stroke-width:0.902743;stroke-linecap:round;stroke-linejoin:round"
         id="path833"
         cx="9.9923658"
         cy="9.9748917"
         r="8.1113453" />
      <path
         id="path1124"
         style="fill:#ffe638;fill-opacity:1;stroke:none;stroke-width:0.0902743px;stroke-linecap:butt;stroke-linejoin:miter;stroke-opacity:1"
         d="M 13.20407,2.5265027 3.3038895,14.563641 a 8.111345,8.111345 0 0 0 3.0139571,2.642458 L 16.6396,5.3265874 A 8.111345,8.111345 0 0 0 13.20407,2.5265027 Z" />
      <path
         id="circle1627"
         style="fill:#683c00;fill-opacity:1;stroke:none;stroke-width:2.64583;stroke-linecap:round;stroke-linejoin:round;filter:url(#filter1643)"
         d="m 13.359375,12.181641 c -4.6729264,0.239281 -8.6147437,4.811168 -8.0751878,9.478606 0.3335009,4.331526 4.28491,8.100772 8.6728438,7.999909 4.125409,0.02954 8.098205,-3.16098 8.670832,-7.300913 0.67559,-3.948401 -1.652737,-8.269895 -5.489574,-9.602541 -1.195944,-0.469009 -2.498873,-0.648363 -3.778914,-0.575061 z"
         transform="matrix(0.129206,0,0,0.129206,6.4007772,7.1990414)" />
      <circle
         style="fill:#ffe638;fill-opacity:1;stroke:none;stroke-width:2.64583;stroke-linecap:round;stroke-linejoin:round;filter:url(#filter1637)"
         id="path1497"
         cx="14.002942"
         cy="20.907587"
         r="6.6262941"
         transform="matrix(0.129206,0,0,0.129206,6.4007772,7.1990414)" />
      <path
         style="fill:#683c00;fill-opacity:1;stroke:none;stroke-width:1.78682;stroke-linecap:round;stroke-linejoin:round;filter:url(#filter1535)"
         id="circle1499"
         transform="matrix(0.129206,0,0,0.129206,6.4007772,7.1990414)"
         sodipodi:type="arc"
         sodipodi:cx="12.162881"
         sodipodi:cy="20.907587"
         sodipodi:rx="4.474957"
         sodipodi:ry="4.474957"
         sodipodi:start="0"
         sodipodi:end="6.0636927"
         sodipodi:open="true"
         sodipodi:arc-type="arc"
         d="m 16.637838,20.907587 a 4.474957,4.474957 0 0 1 -4.229525,4.468222 4.474957,4.474957 0 0 1 -4.6934674,-3.978097 4.474957,4.474957 0 0 1 3.7146934,-4.904584 4.474957,4.474957 0 0 1 5.100936,3.440107" />
      <path
         style="color:#000000;font-style:normal;font-variant:normal;font-weight:normal;font-stretch:normal;font-size:medium;line-height:normal;font-family:sans-serif;font-variant-ligatures:normal;font-variant-position:normal;font-variant-caps:normal;font-variant-numeric:normal;font-variant-alternates:normal;font-variant-east-asian:normal;font-feature-settings:normal;font-variation-settings:normal;text-indent:0;text-align:start;text-decoration:none;text-decoration-line:none;text-decoration-style:solid;text-decoration-color:#000000;letter-spacing:normal;word-spacing:normal;text-transform:none;writing-mode:lr-tb;direction:ltr;text-orientation:mixed;dominant-baseline:auto;baseline-shift:baseline;text-anchor:start;white-space:normal;shape-padding:0;shape-margin:0;inline-size:0;clip-rule:nonzero;display:inline;overflow:visible;visibility:visible;isolation:auto;mix-blend-mode:normal;color-interpolation:sRGB;color-interpolation-filters:linearRGB;solid-color:#000000;solid-opacity:1;vector-effect:none;fill:#683c00;fill-opacity:1;fill-rule:nonzero;stroke:none;stroke-linecap:round;stroke-linejoin:round;stroke-miterlimit:4;stroke-dasharray:none;stroke-dashoffset:0;stroke-opacity:1;filter:url(#filter1885);color-rendering:auto;image-rendering:auto;shape-rendering:auto;text-rendering:auto;enable-background:accumulate;stop-color:#000000"
         d="m 93.396523,-57.398045 c -0.149185,0.0065 -0.294866,0.04731 -0.425782,0.11914 -1.577782,0.866279 -3.051475,1.852948 -4.322265,2.173828 -1.270791,0.32088 -2.281324,0.212773 -3.699219,-1.396484 -0.355857,-0.403647 -0.971652,-0.442134 -1.375,-0.08594 -0.402368,0.35568 -0.440816,0.969972 -0.08594,1.373047 1.767085,2.005574 3.922389,2.488707 5.707916,2.037853 1.597069,-0.403267 2.913598,-1.358019 4.231538,-2.119884 1.760627,1.22178 3.460191,2.055781 5.11914,2.205078 1.840269,0.165615 3.608539,-0.532164 4.972659,-2.03125 0.36166,-0.397579 0.33281,-1.012996 -0.0645,-1.375 -0.39784,-0.362977 -1.01476,-0.3341 -1.37696,0.06445 -1.03554,1.138002 -2.06068,1.519044 -3.357418,1.402344 -1.296735,-0.1167 -2.89821,-0.836363 -4.701172,-2.175781 -0.179533,-0.13347 -0.399544,-0.20106 -0.623046,-0.191406 z"
         id="path1501"
         sodipodi:nodetypes="ccscccscscccscc"
         transform="matrix(0.17553427,0,0,0.17553427,-6.5580355,21.340831)" />
      <path
         style="color:#000000;font-style:normal;font-variant:normal;font-weight:normal;font-stretch:normal;font-size:medium;line-height:normal;font-family:sans-serif;font-variant-ligatures:normal;font-variant-position:normal;font-variant-caps:normal;font-variant-numeric:normal;font-variant-alternates:normal;font-variant-east-asian:normal;font-feature-settings:normal;font-variation-settings:normal;text-indent:0;text-align:start;text-decoration:none;text-decoration-line:none;text-decoration-style:solid;text-decoration-color:#000000;letter-spacing:normal;word-spacing:normal;text-transform:none;writing-mode:lr-tb;direction:ltr;text-orientation:mixed;dominant-baseline:auto;baseline-shift:baseline;text-anchor:start;white-space:normal;shape-padding:0;shape-margin:0;inline-size:0;clip-rule:nonzero;display:inline;overflow:visible;visibility:visible;isolation:auto;mix-blend-mode:normal;color-interpolation:sRGB;color-interpolation-filters:linearRGB;solid-color:#000000;solid-opacity:1;vector-effect:none;fill:#683c00;fill-opacity:1;fill-rule:nonzero;stroke:none;stroke-linecap:round;stroke-linejoin:miter;stroke-miterlimit:4;stroke-dasharray:none;stroke-dashoffset:0;stroke-opacity:1;filter:url(#filter1898);color-rendering:auto;image-rendering:auto;shape-rendering:auto;text-rendering:auto;enable-background:accumulate;stop-color:#000000"
         d="m 78.589882,-83.472264 c -0.578488,0.101095 -1.163076,0.447973 -1.521485,0.974609 -0.376452,0.553151 -0.423881,1.094095 -0.464843,1.732422 -0.04096,0.638327 -0.0149,1.362971 0.05469,2.128906 0.139173,1.531871 0.45483,3.217607 0.855469,4.542969 0.257261,0.851048 0.479305,1.523513 0.974609,2.083985 a 0.97376001,0.97376001 0 0 0 1.373047,0.08398 0.97376001,0.97376001 0 0 0 0.08594,-1.375 c -0.03278,-0.03709 -0.346729,-0.617783 -0.570313,-1.357422 -0.348193,-1.151863 -0.652872,-2.762738 -0.779297,-4.154297 -0.06321,-0.695779 -0.08007,-1.341325 -0.04883,-1.828125 0.03124,-0.4868 0.172034,-0.82509 0.128907,-0.761719 0.07694,-0.11306 0.09622,-0.126152 0.246093,-0.152343 0.149872,-0.02619 0.438598,-0.01022 0.8125,0.101562 0.747805,0.223558 1.791787,0.806503 2.828125,1.546875 2.072676,1.480744 4.224507,3.671464 4.738282,4.419922 a 0.97376001,0.97376001 0 0 0 1.353515,0.251953 0.97376001,0.97376001 0 0 0 0.251953,-1.353516 c -0.849883,-1.238086 -2.944227,-3.282973 -5.21094,-4.902339 -1.133357,-0.809683 -2.283545,-1.493074 -3.404297,-1.828125 -0.560376,-0.167526 -1.124637,-0.255392 -1.703125,-0.154297 z"
         id="path1503"
         transform="matrix(0.17553427,0,0,0.17553427,-6.5580355,21.340831)" />
      <path
         style="color:#000000;font-style:normal;font-variant:normal;font-weight:normal;font-stretch:normal;font-size:medium;line-height:normal;font-family:sans-serif;font-variant-ligatures:normal;font-variant-position:normal;font-variant-caps:normal;font-variant-numeric:normal;font-variant-alternates:normal;font-variant-east-asian:normal;font-feature-settings:normal;font-variation-settings:normal;text-indent:0;text-align:start;text-decoration:none;text-decoration-line:none;text-decoration-style:solid;text-decoration-color:#000000;letter-spacing:normal;word-spacing:normal;text-transform:none;writing-mode:lr-tb;direction:ltr;text-orientation:mixed;dominant-baseline:auto;baseline-shift:baseline;text-anchor:start;white-space:normal;shape-padding:0;shape-margin:0;inline-size:0;clip-rule:nonzero;display:inline;overflow:visible;visibility:visible;isolation:auto;mix-blend-mode:normal;color-interpolation:sRGB;color-interpolation-filters:linearRGB;solid-color:#000000;solid-opacity:1;vector-effect:none;fill:#683c00;fill-opacity:1;fill-rule:nonzero;stroke:none;stroke-linecap:round;stroke-linejoin:round;stroke-miterlimit:4;stroke-dasharray:none;stroke-dashoffset:0;stroke-opacity:1;filter:url(#filter1988);color-rendering:auto;image-rendering:auto;shape-rendering:auto;text-rendering:auto;enable-background:accumulate;stop-color:#000000"
         d="m 75.300819,-70.546483 c -4.968332,-0.242773 -7.478856,1.334876 -10.060546,3.357422 a 0.97385738,0.97385738 0 0 0 0.736328,1.730469 c 1.793002,-0.253109 2.999835,-0.185127 3.958984,0.08594 -2.843159,0.750101 -5.409617,2.375775 -7.726562,5.013672 a 0.97385738,0.97385738 0 0 0 0.828125,1.611328 c 1.732532,-0.171707 3.492274,-0.667825 5.035156,-0.761718 0.889447,-0.05413 1.642663,0.06924 2.33789,0.347656 -1.55537,0.821385 -2.447653,2.261755 -2.519531,3.751953 a 0.97385738,0.97385738 0 0 0 1.074219,1.015625 c 1.639618,-0.169972 2.985984,-0.361878 4.802734,0.511719 a 0.97376001,0.97376001 0 0 0 1.298828,-0.455079 0.97376001,0.97376001 0 0 0 -0.455078,-1.298828 c -1.641541,-0.789346 -3.050867,-0.835804 -4.345703,-0.767578 0.370198,-0.706064 0.999611,-1.304324 2.431641,-1.472656 a 0.97385738,0.97385738 0 0 0 0.617187,-1.607422 c -1.492021,-1.701816 -3.514921,-2.080996 -5.359375,-1.96875 -0.785113,0.04778 -1.429872,0.19292 -2.175781,0.326172 2.13674,-1.741718 4.395978,-2.582468 7.007813,-2.761719 a 0.97385738,0.97385738 0 0 0 0.611328,-1.669922 c -1.060903,-1.031054 -2.572726,-1.530651 -4.363282,-1.746093 1.536785,-0.854145 3.24384,-1.439856 6.169922,-1.296875 a 0.97376001,0.97376001 0 0 0 1.019531,-0.925782 0.97376001,0.97376001 0 0 0 -0.923828,-1.019531 z"
         id="path1515"
         transform="matrix(0.17553427,0,0,0.17553427,-6.5580355,21.340831)" />
      <path
         id="path2030"
         style="fill:#683c00;fill-opacity:1;stroke:none;stroke-width:2.64583;stroke-linecap:round;stroke-linejoin:round;filter:url(#filter1643)"
         d="m 13.359375,12.181641 c -4.6729264,0.239281 -8.6147437,4.811168 -8.0751878,9.478606 0.3335009,4.331526 4.28491,8.100772 8.6728438,7.999909 4.125409,0.02954 8.098205,-3.16098 8.670832,-7.300913 0.67559,-3.948401 -1.652737,-8.269895 -5.489574,-9.602541 -1.195944,-0.469009 -2.498873,-0.648363 -3.778914,-0.575061 z"
         transform="matrix(-0.129206,0,0,0.129206,13.364266,7.1990414)" />
      <circle
         style="fill:#ffe638;fill-opacity:1;stroke:none;stroke-width:2.64583;stroke-linecap:round;stroke-linejoin:round;filter:url(#filter1637)"
         id="circle2032"
         cx="14.002942"
         cy="20.907587"
         r="6.6262941"
         transform="matrix(-0.129206,0,0,0.129206,13.364266,7.1990414)" />
      <path
         style="fill:#683c00;fill-opacity:1;stroke:none;stroke-width:1.78682;stroke-linecap:round;stroke-linejoin:round;filter:url(#filter1535)"
         id="path2036"
         transform="matrix(-0.129206,0,0,0.129206,13.364266,7.1990414)"
         sodipodi:type="arc"
         sodipodi:cx="12.162881"
         sodipodi:cy="20.907587"
         sodipodi:rx="4.474957"
         sodipodi:ry="4.474957"
         sodipodi:start="0"
         sodipodi:end="6.0636927"
         sodipodi:open="true"
         sodipodi:arc-type="arc"
         d="m 16.637838,20.907587 a 4.474957,4.474957 0 0 1 -4.229525,4.468222 4.474957,4.474957 0 0 1 -4.6934674,-3.978097 4.474957,4.474957 0 0 1 3.7146934,-4.904584 4.474957,4.474957 0 0 1 5.100936,3.440107" />
      <path
         style="color:#000000;font-style:normal;font-variant:normal;font-weight:normal;font-stretch:normal;font-size:medium;line-height:normal;font-family:sans-serif;font-variant-ligatures:normal;font-variant-position:normal;font-variant-caps:normal;font-variant-numeric:normal;font-variant-alternates:normal;font-variant-east-asian:normal;font-feature-settings:normal;font-variation-settings:normal;text-indent:0;text-align:start;text-decoration:none;text-decoration-line:none;text-decoration-style:solid;text-decoration-color:#000000;letter-spacing:normal;word-spacing:normal;text-transform:none;writing-mode:lr-tb;direction:ltr;text-orientation:mixed;dominant-baseline:auto;baseline-shift:baseline;text-anchor:start;white-space:normal;shape-padding:0;shape-margin:0;inline-size:0;clip-rule:nonzero;display:inline;overflow:visible;visibility:visible;isolation:auto;mix-blend-mode:normal;color-interpolation:sRGB;color-interpolation-filters:linearRGB;solid-color:#000000;solid-opacity:1;vector-effect:none;fill:#683c00;fill-opacity:1;fill-rule:nonzero;stroke:none;stroke-linecap:round;stroke-linejoin:miter;stroke-miterlimit:4;stroke-dasharray:none;stroke-dashoffset:0;stroke-opacity:1;filter:url(#filter1898);color-rendering:auto;image-rendering:auto;shape-rendering:auto;text-rendering:auto;enable-background:accumulate;stop-color:#000000"
         d="m 12.529297,7.1542969 c -0.578488,0.1010948 -1.163076,0.4479729 -1.521485,0.9746093 -0.376452,0.5531509 -0.423881,1.0940948 -0.464843,1.7324219 -0.04096,0.6383269 -0.0149,1.3629709 0.05469,2.1289059 0.139173,1.531871 0.45483,3.217607 0.855469,4.542969 0.257261,0.851048 0.479305,1.523513 0.974609,2.083985 a 0.97376001,0.97376001 0 0 0 1.373047,0.08398 0.97376001,0.97376001 0 0 0 0.08594,-1.375 c -0.03278,-0.03709 -0.346729,-0.617783 -0.570313,-1.357422 -0.348193,-1.151863 -0.652872,-2.762738 -0.779297,-4.154297 -0.06321,-0.695779 -0.08007,-1.341325 -0.04883,-1.8281249 0.03124,-0.4867996 0.172034,-0.8250897 0.128907,-0.7617187 0.07694,-0.1130601 0.09622,-0.1261525 0.246093,-0.1523438 0.149872,-0.026191 0.438598,-0.010217 0.8125,0.1015625 0.747805,0.223558 1.791787,0.8065033 2.828125,1.5468749 2.072676,1.480744 4.224507,3.671464 4.738282,4.419922 a 0.97376001,0.97376001 0 0 0 1.353515,0.251953 0.97376001,0.97376001 0 0 0 0.251953,-1.353516 C 21.997776,12.800972 19.903432,10.756085 17.636719,9.1367188 16.503362,8.3270357 15.353174,7.6436452 14.232422,7.3085938 13.672046,7.141068 13.107785,7.053202 12.529297,7.1542969 Z"
         id="path2040"
         transform="matrix(-0.17553427,0,0,0.17553427,16.543882,5.4327634)" />
      <path
         style="color:#000000;font-style:normal;font-variant:normal;font-weight:normal;font-stretch:normal;font-size:medium;line-height:normal;font-family:sans-serif;font-variant-ligatures:normal;font-variant-position:normal;font-variant-caps:normal;font-variant-numeric:normal;font-variant-alternates:normal;font-variant-east-asian:normal;font-feature-settings:normal;font-variation-settings:normal;text-indent:0;text-align:start;text-decoration:none;text-decoration-line:none;text-decoration-style:solid;text-decoration-color:#000000;letter-spacing:normal;word-spacing:normal;text-transform:none;writing-mode:lr-tb;direction:ltr;text-orientation:mixed;dominant-baseline:auto;baseline-shift:baseline;text-anchor:start;white-space:normal;shape-padding:0;shape-margin:0;inline-size:0;clip-rule:nonzero;display:inline;overflow:visible;visibility:visible;isolation:auto;mix-blend-mode:normal;color-interpolation:sRGB;color-interpolation-filters:linearRGB;solid-color:#000000;solid-opacity:1;vector-effect:none;fill:#683c00;fill-opacity:1;fill-rule:nonzero;stroke:none;stroke-linecap:round;stroke-linejoin:round;stroke-miterlimit:4;stroke-dasharray:none;stroke-dashoffset:0;stroke-opacity:1;filter:url(#filter1988);color-rendering:auto;image-rendering:auto;shape-rendering:auto;text-rendering:auto;enable-background:accumulate;stop-color:#000000"
         d="M 9.2402344,20.080078 C 4.2719015,19.837305 1.7613782,21.414954 -0.8203125,23.4375 a 0.97385738,0.97385738 0 0 0 0.73632813,1.730469 C 1.7090183,24.91486 2.9158511,24.982842 3.875,25.253906 c -2.8431587,0.750101 -5.4096169,2.375775 -7.7265625,5.013672 a 0.97385738,0.97385738 0 0 0 0.828125,1.611328 c 1.732532,-0.171707 3.49227452,-0.667825 5.0351563,-0.761718 0.8894476,-0.05413 1.6426631,0.06924 2.3378906,0.347656 -1.5553708,0.821385 -2.4476536,2.261755 -2.5195313,3.751953 a 0.97385738,0.97385738 0 0 0 1.0742188,1.015625 C 4.5439152,36.06245 5.8902811,35.870544 7.7070312,36.744141 A 0.97376001,0.97376001 0 0 0 9.0058594,36.289062 0.97376001,0.97376001 0 0 0 8.5507812,34.990234 C 6.9092396,34.200888 5.4999144,34.15443 4.2050781,34.222656 4.5752763,33.516592 5.2046891,32.918332 6.6367188,32.75 A 0.97385738,0.97385738 0 0 0 7.2539062,31.142578 C 5.7618846,29.440762 3.7389851,29.061582 1.8945312,29.173828 1.1094175,29.221607 0.46465941,29.366748 -0.28125,29.5 1.8554903,27.758282 4.1147277,26.917532 6.7265625,26.738281 A 0.97385738,0.97385738 0 0 0 7.3378906,25.068359 C 6.2769881,24.037305 4.7651652,23.537708 2.9746094,23.322266 4.5113945,22.468121 6.2184491,21.88241 9.1445312,22.025391 A 0.97376001,0.97376001 0 0 0 10.164062,21.099609 0.97376001,0.97376001 0 0 0 9.2402344,20.080078 Z"
         id="path2042"
         transform="matrix(-0.17553427,0,0,0.17553427,15.440766,5.4327634)" />
    </g>
  </g>
</svg>
